# MagicaVoxel @ Ephtracy

# group
g axe

# material
mtllib axe.mtl
usemtl palette

# normals
vn -1 0 0
vn 1 0 0
vn 0 0 1
vn 0 0 -1
vn 0 -1 0
vn 0 1 0

# texcoords
vt 0.876953 0.5
vt 0.974609 0.5

# verts
v -3 16 1
v -3 16 -1
v -3 22 1
v -3 22 -1
v -2 0 2
v -2 0 -2
v -2 16 2
v -2 16 1
v -2 16 -1
v -2 16 -2
v -2 22 2
v -2 22 1
v -2 22 -1
v -2 22 -2
v -2 24 1
v -2 24 -1
v 2 0 2
v 2 0 -2
v 2 16 2
v 2 16 1
v 2 16 -1
v 2 16 -2
v 2 22 2
v 2 22 1
v 2 22 -1
v 2 22 -2
v 2 23 1
v 2 23 -1
v 2 24 1
v 2 24 -1
v 3 22 1
v 3 22 -1
v 3 23 1
v 3 23 -1
v 4 16 1
v 4 16 -1
v 4 17 1
v 4 17 -1
v 5 17 1
v 5 17 -1
v 5 22 1
v 5 22 -1
v -2 0 2
v -2 16 2
v -2 22 2
v 2 0 2
v 2 16 2
v 2 22 2
v -3 16 1
v -3 22 1
v -2 16 1
v -2 22 1
v -2 24 1
v 2 16 1
v 2 22 1
v 2 23 1
v 2 24 1
v 3 22 1
v 3 23 1
v 4 16 1
v 4 17 1
v 5 17 1
v 5 22 1
v -3 16 -1
v -3 22 -1
v -2 16 -1
v -2 22 -1
v -2 24 -1
v 2 16 -1
v 2 22 -1
v 2 23 -1
v 2 24 -1
v 3 22 -1
v 3 23 -1
v 4 16 -1
v 4 17 -1
v 5 17 -1
v 5 22 -1
v -2 0 -2
v -2 16 -2
v -2 22 -2
v 2 0 -2
v 2 16 -2
v 2 22 -2
v -2 0 2
v 2 0 2
v -2 0 -2
v 2 0 -2
v -3 16 1
v -2 16 1
v 2 16 1
v 4 16 1
v -3 16 -1
v -2 16 -1
v 2 16 -1
v 4 16 -1
v 4 17 1
v 5 17 1
v 4 17 -1
v 5 17 -1
v -2 22 2
v 2 22 2
v -3 22 1
v -2 22 1
v 2 22 1
v 3 22 1
v 5 22 1
v -3 22 -1
v -2 22 -1
v 2 22 -1
v 3 22 -1
v 5 22 -1
v -2 22 -2
v 2 22 -2
v 2 23 1
v 3 23 1
v 2 23 -1
v 3 23 -1
v -2 24 1
v 2 24 1
v -2 24 -1
v 2 24 -1

# faces
f 3/2/1 2/2/1 1/2/1
f 4/2/1 2/2/1 3/2/1
f 7/1/1 6/1/1 5/1/1
f 8/1/1 6/1/1 7/1/1
f 9/1/1 6/1/1 8/1/1
f 10/1/1 6/1/1 9/1/1
f 11/2/1 8/2/1 7/2/1
f 12/2/1 8/2/1 11/2/1
f 13/2/1 10/2/1 9/2/1
f 14/2/1 10/2/1 13/2/1
f 15/2/1 13/2/1 12/2/1
f 16/2/1 13/2/1 15/2/1
f 17/1/2 18/1/2 19/1/2
f 19/1/2 18/1/2 20/1/2
f 20/1/2 18/1/2 21/1/2
f 21/1/2 18/1/2 22/1/2
f 19/2/2 20/2/2 23/2/2
f 23/2/2 20/2/2 24/2/2
f 21/2/2 22/2/2 25/2/2
f 25/2/2 22/2/2 26/2/2
f 27/2/2 28/2/2 29/2/2
f 29/2/2 28/2/2 30/2/2
f 31/2/2 32/2/2 33/2/2
f 33/2/2 32/2/2 34/2/2
f 35/2/2 36/2/2 37/2/2
f 37/2/2 36/2/2 38/2/2
f 39/2/2 40/2/2 41/2/2
f 41/2/2 40/2/2 42/2/2
f 46/1/3 44/1/3 43/1/3
f 47/2/3 45/2/3 44/2/3
f 47/1/3 44/1/3 46/1/3
f 48/2/3 45/2/3 47/2/3
f 51/2/3 50/2/3 49/2/3
f 52/2/3 50/2/3 51/2/3
f 55/2/3 53/2/3 52/2/3
f 56/2/3 53/2/3 55/2/3
f 57/2/3 53/2/3 56/2/3
f 58/2/3 55/2/3 54/2/3
f 58/2/3 56/2/3 55/2/3
f 59/2/3 56/2/3 58/2/3
f 60/2/3 58/2/3 54/2/3
f 61/2/3 58/2/3 60/2/3
f 62/2/3 58/2/3 61/2/3
f 63/2/3 58/2/3 62/2/3
f 64/2/4 65/2/4 66/2/4
f 66/2/4 65/2/4 67/2/4
f 67/2/4 68/2/4 70/2/4
f 70/2/4 68/2/4 71/2/4
f 71/2/4 68/2/4 72/2/4
f 69/2/4 70/2/4 73/2/4
f 70/2/4 71/2/4 73/2/4
f 73/2/4 71/2/4 74/2/4
f 69/2/4 73/2/4 75/2/4
f 75/2/4 73/2/4 76/2/4
f 76/2/4 73/2/4 77/2/4
f 77/2/4 73/2/4 78/2/4
f 79/1/4 80/1/4 82/1/4
f 80/2/4 81/2/4 83/2/4
f 82/1/4 80/1/4 83/1/4
f 83/2/4 81/2/4 84/2/4
f 87/1/5 86/1/5 85/1/5
f 88/1/5 86/1/5 87/1/5
f 93/2/5 90/2/5 89/2/5
f 94/2/5 90/2/5 93/2/5
f 95/2/5 92/2/5 91/2/5
f 96/2/5 92/2/5 95/2/5
f 99/2/5 98/2/5 97/2/5
f 100/2/5 98/2/5 99/2/5
f 101/2/6 102/2/6 104/2/6
f 104/2/6 102/2/6 105/2/6
f 103/2/6 104/2/6 108/2/6
f 108/2/6 104/2/6 109/2/6
f 106/2/6 107/2/6 111/2/6
f 111/2/6 107/2/6 112/2/6
f 109/2/6 110/2/6 113/2/6
f 113/2/6 110/2/6 114/2/6
f 115/2/6 116/2/6 117/2/6
f 117/2/6 116/2/6 118/2/6
f 119/2/6 120/2/6 121/2/6
f 121/2/6 120/2/6 122/2/6
