# MagicaVoxel @ Ephtracy

# group
g sword

# material
mtllib sword.mtl
usemtl palette

# normals
vn -1 0 0
vn 1 0 0
vn 0 0 1
vn 0 0 -1
vn 0 -1 0
vn 0 1 0

# texcoords
vt 0.306641 0.5
vt 0.873047 0.5
vt 0.876953 0.5
vt 0.970703 0.5

# verts
v -2 2 1
v -2 2 -1
v -2 7 5
v -2 7 1
v -2 7 -1
v -2 7 -5
v -2 9 5
v -2 9 2
v -2 9 -2
v -2 9 -5
v -2 10 2
v -2 10 -2
v -2 12 2
v -2 12 1
v -2 12 -1
v -2 12 -2
v -2 15 1
v -2 15 -1
v -1 0 1
v -1 0 -1
v -1 2 2
v -1 2 1
v -1 2 -1
v -1 2 -2
v -1 7 2
v -1 7 1
v -1 7 -1
v -1 7 -2
v -1 12 2
v -1 12 1
v -1 12 -1
v -1 12 -2
v -1 15 2
v -1 15 1
v -1 15 -1
v -1 15 -2
v -1 28 1
v -1 28 -1
v 1 0 1
v 1 0 -1
v 1 2 2
v 1 2 1
v 1 2 -1
v 1 2 -2
v 1 7 2
v 1 7 1
v 1 7 -1
v 1 7 -2
v 1 12 2
v 1 12 1
v 1 12 -1
v 1 12 -2
v 1 15 2
v 1 15 1
v 1 15 -1
v 1 15 -2
v 1 28 1
v 1 28 -1
v 2 2 1
v 2 2 -1
v 2 7 5
v 2 7 1
v 2 7 -1
v 2 7 -5
v 2 9 5
v 2 9 2
v 2 9 -2
v 2 9 -5
v 2 10 2
v 2 10 -2
v 2 12 2
v 2 12 1
v 2 12 -1
v 2 12 -2
v 2 15 1
v 2 15 -1
v -2 7 5
v -2 9 5
v 2 7 5
v 2 9 5
v -2 9 2
v -2 10 2
v -2 12 2
v -1 2 2
v -1 7 2
v -1 12 2
v -1 15 2
v 1 2 2
v 1 7 2
v 1 12 2
v 1 15 2
v 2 9 2
v 2 10 2
v 2 12 2
v -2 2 1
v -2 7 1
v -2 12 1
v -2 15 1
v -1 0 1
v -1 2 1
v -1 7 1
v -1 12 1
v -1 15 1
v -1 28 1
v 1 0 1
v 1 2 1
v 1 7 1
v 1 12 1
v 1 15 1
v 1 28 1
v 2 2 1
v 2 7 1
v 2 12 1
v 2 15 1
v -2 2 -1
v -2 7 -1
v -2 12 -1
v -2 15 -1
v -1 0 -1
v -1 2 -1
v -1 7 -1
v -1 12 -1
v -1 15 -1
v -1 28 -1
v 1 0 -1
v 1 2 -1
v 1 7 -1
v 1 12 -1
v 1 15 -1
v 1 28 -1
v 2 2 -1
v 2 7 -1
v 2 12 -1
v 2 15 -1
v -2 9 -2
v -2 10 -2
v -2 12 -2
v -1 2 -2
v -1 7 -2
v -1 12 -2
v -1 15 -2
v 1 2 -2
v 1 7 -2
v 1 12 -2
v 1 15 -2
v 2 9 -2
v 2 10 -2
v 2 12 -2
v -2 7 -5
v -2 9 -5
v 2 7 -5
v 2 9 -5
v -1 0 1
v 1 0 1
v -1 0 -1
v 1 0 -1
v -1 2 2
v 1 2 2
v -2 2 1
v -1 2 1
v 1 2 1
v 2 2 1
v -2 2 -1
v -1 2 -1
v 1 2 -1
v 2 2 -1
v -1 2 -2
v 1 2 -2
v -2 7 5
v 2 7 5
v -1 7 2
v 1 7 2
v -2 7 1
v -1 7 1
v 1 7 1
v 2 7 1
v -2 7 -1
v -1 7 -1
v 1 7 -1
v 2 7 -1
v -1 7 -2
v 1 7 -2
v -2 7 -5
v 2 7 -5
v -2 9 5
v 2 9 5
v -2 9 2
v 2 9 2
v -2 9 -2
v 2 9 -2
v -2 9 -5
v 2 9 -5
v -2 12 2
v -1 12 2
v 1 12 2
v 2 12 2
v -2 12 1
v -1 12 1
v 1 12 1
v 2 12 1
v -2 12 -1
v -1 12 -1
v 1 12 -1
v 2 12 -1
v -2 12 -2
v -1 12 -2
v 1 12 -2
v 2 12 -2
v -1 15 2
v 1 15 2
v -2 15 1
v -1 15 1
v 1 15 1
v 2 15 1
v -2 15 -1
v -1 15 -1
v 1 15 -1
v 2 15 -1
v -1 15 -2
v 1 15 -2
v -1 28 1
v 1 28 1
v -1 28 -1
v 1 28 -1

# faces
f 4/3/1 2/3/1 1/3/1
f 5/3/1 2/3/1 4/3/1
f 7/2/1 4/2/1 3/2/1
f 7/2/1 6/2/1 5/2/1
f 7/2/1 5/2/1 4/2/1
f 8/2/1 6/2/1 7/2/1
f 9/2/1 6/2/1 8/2/1
f 10/2/1 6/2/1 9/2/1
f 11/2/1 9/2/1 8/2/1
f 12/2/1 9/2/1 11/2/1
f 13/4/1 12/4/1 11/4/1
f 14/4/1 12/4/1 13/4/1
f 15/4/1 12/4/1 14/4/1
f 16/4/1 12/4/1 15/4/1
f 17/4/1 15/4/1 14/4/1
f 18/4/1 15/4/1 17/4/1
f 22/3/1 20/3/1 19/3/1
f 23/3/1 20/3/1 22/3/1
f 25/3/1 22/3/1 21/3/1
f 26/3/1 22/3/1 25/3/1
f 27/3/1 24/3/1 23/3/1
f 28/3/1 24/3/1 27/3/1
f 33/4/1 30/4/1 29/4/1
f 34/4/1 30/4/1 33/4/1
f 35/4/1 32/4/1 31/4/1
f 36/4/1 32/4/1 35/4/1
f 37/4/1 35/4/1 34/4/1
f 38/4/1 35/4/1 37/4/1
f 39/3/2 40/3/2 42/3/2
f 42/3/2 40/3/2 43/3/2
f 41/3/2 42/3/2 45/3/2
f 45/3/2 42/3/2 46/3/2
f 43/3/2 44/3/2 47/3/2
f 47/3/2 44/3/2 48/3/2
f 49/4/2 50/4/2 53/4/2
f 53/4/2 50/4/2 54/4/2
f 51/4/2 52/4/2 55/4/2
f 55/4/2 52/4/2 56/4/2
f 54/4/2 55/4/2 57/4/2
f 57/4/2 55/4/2 58/4/2
f 59/3/2 60/3/2 62/3/2
f 62/3/2 60/3/2 63/3/2
f 61/2/2 62/2/2 65/2/2
f 63/2/2 64/2/2 65/2/2
f 62/2/2 63/2/2 65/2/2
f 65/2/2 64/2/2 66/2/2
f 66/2/2 64/2/2 67/2/2
f 67/2/2 64/2/2 68/2/2
f 66/2/2 67/2/2 69/2/2
f 69/2/2 67/2/2 70/2/2
f 69/4/2 70/4/2 71/4/2
f 71/4/2 70/4/2 72/4/2
f 72/4/2 70/4/2 73/4/2
f 73/4/2 70/4/2 74/4/2
f 72/4/2 73/4/2 75/4/2
f 75/4/2 73/4/2 76/4/2
f 79/2/3 78/2/3 77/2/3
f 80/2/3 78/2/3 79/2/3
f 86/4/3 83/4/3 82/4/3
f 88/3/3 85/3/3 84/3/3
f 89/3/3 85/3/3 88/3/3
f 90/4/3 87/4/3 86/4/3
f 90/4/3 86/4/3 82/4/3
f 91/4/3 87/4/3 90/4/3
f 92/2/3 82/2/3 81/2/3
f 93/4/3 90/4/3 82/4/3
f 93/2/3 82/2/3 92/2/3
f 94/4/3 90/4/3 93/4/3
f 100/3/3 96/3/3 95/3/3
f 101/3/3 96/3/3 100/3/3
f 102/4/3 98/4/3 97/4/3
f 103/4/3 98/4/3 102/4/3
f 105/3/3 100/3/3 99/3/3
f 106/3/3 100/3/3 105/3/3
f 109/4/3 104/4/3 103/4/3
f 110/4/3 104/4/3 109/4/3
f 111/3/3 107/3/3 106/3/3
f 112/3/3 107/3/3 111/3/3
f 113/4/3 109/4/3 108/4/3
f 114/4/3 109/4/3 113/4/3
f 115/3/4 116/3/4 120/3/4
f 120/3/4 116/3/4 121/3/4
f 117/4/4 118/4/4 122/4/4
f 122/4/4 118/4/4 123/4/4
f 119/3/4 120/3/4 125/3/4
f 125/3/4 120/3/4 126/3/4
f 123/4/4 124/4/4 129/4/4
f 129/4/4 124/4/4 130/4/4
f 126/3/4 127/3/4 131/3/4
f 131/3/4 127/3/4 132/3/4
f 128/4/4 129/4/4 133/4/4
f 133/4/4 129/4/4 134/4/4
f 136/4/4 137/4/4 140/4/4
f 138/3/4 139/3/4 142/3/4
f 142/3/4 139/3/4 143/3/4
f 140/4/4 141/4/4 144/4/4
f 136/4/4 140/4/4 144/4/4
f 144/4/4 141/4/4 145/4/4
f 135/2/4 136/2/4 146/2/4
f 136/4/4 144/4/4 147/4/4
f 146/2/4 136/2/4 147/2/4
f 147/4/4 144/4/4 148/4/4
f 149/2/4 150/2/4 151/2/4
f 151/2/4 150/2/4 152/2/4
f 155/3/5 154/3/5 153/3/5
f 156/3/5 154/3/5 155/3/5
f 160/3/5 158/3/5 157/3/5
f 161/3/5 158/3/5 160/3/5
f 163/3/5 160/3/5 159/3/5
f 164/3/5 160/3/5 163/3/5
f 165/3/5 162/3/5 161/3/5
f 166/3/5 162/3/5 165/3/5
f 167/3/5 165/3/5 164/3/5
f 168/3/5 165/3/5 167/3/5
f 171/2/5 170/2/5 169/2/5
f 172/2/5 170/2/5 171/2/5
f 173/2/5 171/2/5 169/2/5
f 174/2/5 171/2/5 173/2/5
f 175/2/5 170/2/5 172/2/5
f 176/2/5 170/2/5 175/2/5
f 181/2/5 178/2/5 177/2/5
f 182/2/5 180/2/5 179/2/5
f 183/2/5 181/2/5 177/2/5
f 183/2/5 182/2/5 181/2/5
f 184/2/5 180/2/5 182/2/5
f 184/2/5 182/2/5 183/2/5
f 185/2/6 186/2/6 187/2/6
f 187/2/6 186/2/6 188/2/6
f 189/2/6 190/2/6 191/2/6
f 191/2/6 190/2/6 192/2/6
f 193/4/6 194/4/6 197/4/6
f 197/4/6 194/4/6 198/4/6
f 195/4/6 196/4/6 199/4/6
f 199/4/6 196/4/6 200/4/6
f 201/4/6 202/4/6 205/4/6
f 205/4/6 202/4/6 206/4/6
f 203/4/6 204/4/6 207/4/6
f 207/4/6 204/4/6 208/4/6
f 209/4/6 210/4/6 212/4/6
f 212/4/6 210/4/6 213/4/6
f 211/4/6 212/4/6 215/4/6
f 215/4/6 212/4/6 216/4/6
f 213/4/6 214/4/6 217/4/6
f 217/4/6 214/4/6 218/4/6
f 216/4/6 217/4/6 219/4/6
f 219/4/6 217/4/6 220/4/6
f 221/4/6 222/4/6 223/4/6
f 223/4/6 222/4/6 224/4/6
